<?xml version="1.0" encoding="UTF-8"?>
<svg width="18px" height="17px" viewBox="0 0 18 17" version="1.1" xmlns="http://www.w3.org/2000/svg" xmlns:xlink="http://www.w3.org/1999/xlink">
    <!-- Generator: Sketch 51.2 (57519) - http://www.bohemiancoding.com/sketch -->
    <title>ic_message</title>
    <desc>Created with Sketch.</desc>
    <defs></defs>
    <g id="Symbols" stroke="none" stroke-width="1" fill="none" fill-rule="evenodd">
        <g id="顶部导航栏展开款" transform="translate(-1197.000000, -22.000000)">
            <g id="顶部导航栏">
                <g id="ic_message" transform="translate(1197.000000, 21.000000)">
                    <g>
                        <rect id="Rectangle-6" fill="#ffffff" opacity="0" x="0" y="0" width="18" height="18" rx="0.5"></rect>
                        <path d="M16.4975594,14.9930579 L12.3095685,14.9930579 L9.56800261,17.7320548 C9.55579824,17.7462036 9.5512164,17.7640976 9.5378041,17.7774973 C9.39719648,17.9179804 9.20648727,17.9969036 9.00763293,17.9969036 C8.8087786,17.9969036 8.61806939,17.9179804 8.47746176,17.7774973 L5.69038984,14.9930579 L1.50244061,14.9930579 C0.674283065,14.9930579 0.00292873121,14.3223327 0.00292873121,13.4949512 L0.00292873121,2.50883535 C0.00292873121,1.68145386 0.674283065,1.01072864 1.50244061,1.01072864 L16.4975594,1.01072864 C17.3257169,1.01072864 17.9970713,1.68145386 17.9970713,2.50883535 L17.9970713,13.4949512 C17.9970713,13.8922738 17.8390874,14.2733231 17.5578744,14.5542726 C17.2766614,14.8352222 16.8952547,14.9930579 16.4975594,14.9930579 Z M16.7502441,2.2784458 L1.24975594,2.2784458 L1.24975594,13.6348186 L5.93182907,13.6348186 C6.12258513,13.6418992 6.30380208,13.7199643 6.43990064,13.8536869 L9,16.4112797 L11.5600133,13.8536869 C11.6961227,13.7199545 11.8773568,13.6418886 12.0681279,13.6348186 L16.7502441,13.6348186 L16.7502441,2.2784458 Z M12.9986983,7.00315548 C13.5508034,7.00315548 13.9983729,7.45030563 13.9983729,8.00189329 C13.9983729,8.55348095 13.5508034,9.0006311 12.9986983,9.0006311 C12.4465933,9.0006311 11.9990237,8.55348095 11.9990237,8.00189329 C11.9990237,7.45030563 12.4465933,7.00315548 12.9986983,7.00315548 Z M9,9.0006311 C8.44789497,9.0006311 8.00032541,8.55348095 8.00032541,8.00189329 C8.00032541,7.45030563 8.44789497,7.00315548 9,7.00315548 C9.55210503,7.00315548 9.99967459,7.45030563 9.99967459,8.00189329 C9.99967459,8.26677503 9.89435203,8.5208079 9.70687668,8.70810757 C9.51940133,8.89540724 9.26513019,9.0006311 9,9.0006311 Z M5.00130166,9.0006311 C4.44919663,9.0006311 4.00162707,8.55348095 4.00162707,8.00189329 C4.00162707,7.45030563 4.44919663,7.00315548 5.00130166,7.00315548 C5.55340669,7.00315548 6.00097625,7.45030563 6.00097625,8.00189329 C6.00097625,8.55348095 5.55340669,9.0006311 5.00130166,9.0006311 Z" id="Shape" fill-opacity="0.43" fill="#ffffff" fill-rule="nonzero"></path>
                    </g>
                </g>
            </g>
        </g>
    </g>
</svg>