<?xml version="1.0" standalone="no"?><!DOCTYPE svg PUBLIC "-//W3C//DTD SVG 1.1//EN" "http://www.w3.org/Graphics/SVG/1.1/DTD/svg11.dtd"><svg class="icon" width="200px" height="200.00px" viewBox="0 0 1024 1024" version="1.1" xmlns="http://www.w3.org/2000/svg"><path d="M512.863684 461.311698l161.986888-181.609598a24.627922 24.627922 0 0 1 36.230915 33.330167L512.465542 534.512935 304.749209 317.468706A24.627922 24.627922 0 0 1 341.378266 284.593558l171.485418 176.71814z" fill="#ffffff" /><path d="M324.99757 539.745658a24.627922 24.627922 0 0 1 0-49.255845h353.208769a24.627922 24.627922 0 0 1 0 49.255845h-353.208769zM301.165932 667.207953a24.627922 24.627922 0 0 1 0-49.198967h417.480252a24.627922 24.627922 0 0 1 0 49.198967h-417.480252z" fill="#ffffff" /><path d="M491.022755 535.707361a24.627922 24.627922 0 1 1 49.255844 0v289.051042a24.627922 24.627922 0 1 1-49.255844 0V535.707361z" fill="#ffffff" /><path d="M1007.412838 641.101218a31.965109 31.965109 0 1 1-61.996386-16.039432 447.909672 447.909672 0 1 0-160.053056 241.785906 31.965109 31.965109 0 1 1 39.131664 50.620903 511.896767 511.896767 0 1 1 182.860901-276.367377z m-82.415379 198.331559c-13.252439 15.41378-38.33538 18.542038-55.910503 6.82529-17.632-11.602993-21.1584-33.557677-7.849083-48.91458 11.261729-13.195561 21.840929-26.846142 31.566967-40.894864 11.432361-16.494451 36.003406-21.784051 54.886709-11.773626 18.883303 10.067303 24.855432 31.566967 13.423071 48.118296a563.541464 563.541464 0 0 1-36.117161 46.639484z" fill-opacity="0.75" fill="#ffffff" /></svg>